<?xml version="1.0" encoding="UTF-8"?>
<svg id="Layer_1" data-name="Layer 1" xmlns="http://www.w3.org/2000/svg" viewBox="0 0 1500 1500">
  <defs>
    <style>
      .cls-1 {
        fill: #053f34;
      }
    </style>
  </defs>
  <path class="cls-1" d="M1139.38,698.27c4.44-2.86,9.89-4.33,16.24-4.33,2.19,0,4.44,.2,6.68,.62,.02-.05,.05-.08,.06-.11-.31-1.07-1.75-4.68-8.59-16.34-5.92-10.08-8.38-13.02-9.25-13.86-13.88,.17-27.14,4.5-39.37,12.86-13.79,9.53-20.5,20.67-20.5,34.08,0,6.95,2.26,13.68,6.8,20.1l-.06-.1c.34,.47,2.56,3.04,13.53,15.22,5.55,6.33,8.26,11.92,8.26,17.07s-2.64,12.64-15.18,16.65l-.2,.07-.22,.03c-6.27,1.15-12.5,2.28-18.69,3.44,.84,2.04,3.07,6.49,9.03,15.8,7,10.92,9.75,13.51,10.56,14.11,8.05-.09,17.01-2.24,26.59-6.36,9.22-4.09,17.36-9.17,24.25-15.13,2.87-2.39,5.34-6.37,7.34-11.8,1.78-5.11,2.69-9.99,2.69-14.49,0-7.66-2.28-14.95-6.83-21.73-1.12-1.74-4.35-5.8-13.36-15.28-5.61-5.94-8.34-10.94-8.34-15.29,0-6.48,2.98-11.76,8.53-15.23Z"/>
  <path class="cls-1" d="M1069.73,686.76c.52-4.62,.81-8.29,.85-10.93-.55-.2-1.86-.56-4.63-.56-7.97,0-16.43,2.42-25.13,7.18-3.14,1.72-6.45,3.35-9.41,5.38-1.65,1.14-3.18,3.59-5.51,2.69-3.76-1.45-4.44-9-4.71-12.37-.26-3.17-.64-4.85-.92-5.71-2.41,.43-8.34,1.56-21.89,4.21l-.15,.03c-9.54,1.44-17.1,2.48-22.5,3.09,.03,.2,.08,.5,.16,.89,4.21,14.89,6.34,34.03,6.34,56.89,0,8.18-.05,20.2-.16,34.73-.09,15.19-.14,26.85-.14,34.67,0,.74,0,1.1,1.66,1.31,5.36,.56,12.64,.85,21.65,.85,9.66,0,16.52-.18,20.98-.57,.98-.08,1.44-.27,1.61-.36v-.07c0-2.57-.19-6.66-.57-12.14-.39-5.76-.59-9.94-.59-12.77,0-4.28-.08-10.81-.22-18.86-.14-8.39-.22-14.78-.22-18.96,0-8.78,1.82-14.62,5.54-17.85,3.59-3.1,9.68-4.61,18.65-4.61,1.87,0,4.61,.12,8.15,.37,3.37,.23,6,.34,7.79,.34,2.75,0,2.75-.81,2.75-2.16,0-1.65-.08-4.99-.3-11.22-.1-4.48-.15-8.25-.15-11.22v-.16c.11-2.53,.47-6.6,1.05-12.12Z"/>
  <path class="cls-1" d="M594.68,681.09c-4.08-1.3-10.75-2.87-19.82-4.73-10.85-2.18-16.22-2.82-18.88-2.93-.32,.55-.85,1.77-1.44,4.33-1.26,5.29-2.61,9.69-6.36,9.69-1.41,0-2.66-.68-3.7-1.98-8.17-9.87-19.04-14.68-33.23-14.68-20.67,0-37.16,6.72-48.95,19.97-11.44,12.89-17.23,30.25-17.23,51.57,0,18.35,5.62,34.35,16.72,47.59,11.77,14.15,26.21,21.05,44.1,21.05,11.34,0,22.2-5.16,32.28-15.34,1.51-1.53,2.79-2.56,3.94-3.14l.93-.48,1.06,.14c3.76,.45,4.56,5.07,5.28,11.54,.36,3.12,.84,4.59,1.12,5.24,15.02-.01,28.47-.45,39.96-1.31,1.05-.08,1.86-.15,1.86-2.75,0-7.32-.44-18.35-1.28-32.8-.87-14.62-1.32-25.85-1.32-33.37,0-19.66,1.57-38.53,4.68-56.09,.12-.67,.2-1.17,.27-1.53Zm-53.42,81.4c-5.86,6.04-13.48,9.1-22.63,9.1s-16.14-3.18-22.2-9.46c-6.03-6.25-9.09-13.84-9.09-22.55,0-9.21,2.92-16.89,8.66-22.84,5.77-5.99,13.38-9.03,22.63-9.03s16.88,3.07,22.71,9.11c5.79,6.01,8.74,13.65,8.74,22.76s-2.96,16.89-8.82,22.91Z"/>
  <path class="cls-1" d="M707.46,697.25c-.1-10.16-.15-16.05-.15-20.16-.2-.03-.48-.06-.86-.06-2.94,0-7.25,.09-12.77,.28-5.28,.19-9.69,.28-12.7,.28h-2.93l-.51-2.89c-.52-3.02-.78-6.26-.78-9.58,0-11.13,1.86-18.58,5.69-22.73,2.49-2.79,7.69-4.5,16.87-5.51,4.73-.45,6.52-1.23,7.12-1.58-.07-1.25-.33-3.37-1.19-6.84-1.51-6.03-1.85-7.7-1.95-8.43-1.35-7.95-2.36-13.85-3.11-18.04h-.24c-27.47,0-47.54,7.15-59.63,21.22-5.88,6.84-8.86,18.26-8.86,33.94,0,4.37,.24,10.39,.7,17.89l.22,3.5-3.49,.2c-3.54,.19-6.71,.43-9.67,.68-2.15,.5-2.56,1.43-2.56,3.06,0,15.18,.41,27.09,1.22,35.45,.2,.02,.48,.03,.82,.03,.41,0,1.27-.02,3.01-.14,1.36-.09,2.6-.15,3.51-.15,8.6,0,9.27,5.87,9.27,7.68v85.46c0,1.83,.53,2.25,2.06,2.51,3.06,.55,10,.83,20.67,.83,16.06,0,22.04-.31,24.24-.56,.47-.06,.76-.12,.94-.2-.01-6.74-.34-16.27-1-28.29-.78-14-1.22-23.42-1.31-28.8-.28-12.85-.58-28.69-.87-35.9l-.16-3.99,3.99,.37c5.92,.59,14.07,.87,24.28,.87,.1,0,.19,0,.27-.01,0-4.51-.05-11.39-.14-20.45Z"/>
  <path class="cls-1" d="M925.13,749.9c7.7-.8,28.17-2.89,29.6-3.14,1.82-.39,6.67-1.42,6.67-13.25,0-28.19-19.32-52.05-44.44-61.16-.69-.25-1.48-.09-2.01,.42-1.02,.99-2.14,1.89-3.34,2.67-8.4,5.44-20.2,4.6-28.01-1.51-1.16-.91-2.88-.23-3.11,1.23-2.71,17.27-23.95,32.22-39.81,26.74-.9-.31-1.9,.06-2.35,.9-5.98,11.08-8.99,24.07-8.99,38.84,0,21.67,6.95,39.19,20.65,52.07,13.37,12.71,31.27,19.16,53.21,19.16,23.68,0,41.28-6.01,52.32-17.88,.2-.2,.37-.39,.51-.55,.45-.51,.62-1.21,.42-1.86-.56-1.86-2.12-5.79-6.44-13.83-2.95-5.48-4.99-8.72-6.35-10.62-.6-.84-1.76-1.06-2.64-.51-2.44,1.54-4.88,3.07-7.31,4.62l-.1,.07-.12,.06c-9.17,4.88-18.45,7.36-27.56,7.36-7.62,0-14.56-1.48-20.62-4.4-7.85-3.76-12.62-9.39-14.2-16.76l-.37-1.71c-.25-1.16,.59-2.28,1.77-2.37l1.73-.13c22.32-1.7,39.44-3.21,50.88-4.48Zm-56.56-23.47c0-7.13,2.09-13.45,6.23-18.8,4.63-5.98,10.63-9.02,17.82-9.02s12.83,2.66,17.73,7.92c4.86,5.19,7.32,11.29,7.32,18.15,0,4.59-5.82,5.48-7.74,5.77-15.42,2.27-26.48,3.37-33.83,3.37-4.65,0-7.53-2.84-7.53-7.4Z"/>
  <path class="cls-1" d="M631.04,842.92c-6.43-10.42-14.26-3.9-23.72,.24-1.73,.75-3.41,1.41-5.03,1.84-8.92,2.35-18.45,5.49-27.56,7.01-42.94,7.12-94.05,5.4-124.81-30.31-17.64-20.48-28.25-48.93-39.96-73.01-3.15-6.5-8.08-12.79-.45-18.32,10.03-7.28,16.97-14.8,20.63-22.37,3.68-7.62,5.53-18.1,5.53-31.15,0-19.44-6.99-33.87-21.39-44.12-12.79-9.16-29.65-13.79-50.11-13.79-10.1,0-23.99,.19-41.27,.56-31.4,.7-40.32,1.27-42.27,1.64-.73,.14-1.2,.27-1.51,.39l.08,1.09c1.77,22.16,2.68,53.38,2.68,92.79,0,10.37-.5,26.14-1.48,46.84-.98,20.61-1.48,36.2-1.48,46.37,0,.42,0,.67,1.28,.94,1.7,.35,7.13,.76,23.41,.76,11.54,0,20.13-.18,25.64-.56h0c1.04-.08,1.84-.94,1.82-1.99-.12-6.15-.7-14.78-1.7-25.74-1.17-12.64-1.76-22.33-1.76-28.77,0-2.92,0-10.63,5.58-10.63,11.69,0,14.14-.09,14.64-.14v-.15c7.43,.47,12.35,3.17,14.63,8.14,7.74,16.81,12.72,35.03,21.66,51.03,12.25,21.9,24.59,44.28,44.13,60.67,31.53,26.49,73.17,36.16,112.88,35.81,11.66-.1,24.36-.83,36.35-2.57,.68-.1,1.25-.56,1.53-1.19,1.25-2.78,3.11-5.27,5.51-7.16,6.45-5.1,16.13-5.41,23.09-1.17,1.23,.75,2.77-.13,2.89-1.56,1.1-12.74,13.94-24.97,26.22-25.38,1.41-.05,2.33-1.51,1.72-2.79-2.53-5.28-5.57-10.23-7.42-13.23Zm-278.08-129.22c-6.4,0-12.61-.44-18.48-1.32-3.32-.51-7.43-1.16-7.43-4.84,0-1.99-.05-5.04-.15-9.31-.09-4.18-.14-7.41-.14-9.61,0-15.47,.31-24.66,.92-28.17,1.25-6.07,10.04-6.85,17.56-6.85,13.09,0,22.55,1.82,28.96,5.53,8.59,5.04,12.94,14.03,12.94,26.7s-5.93,27.88-34.18,27.88Z"/>
  <g>
    <path class="cls-1" d="M1075.65,647.47l5.75-6.83-2.07-1.75-5.76,6.82-4.9-4.12,6.35-7.53-2.08-1.76-8.39,9.96,16.06,13.54,2.03-2.42-7-5.91Z"/>
    <path class="cls-1" d="M1102.58,630.29c-.2-1.79-.94-3.62-2.19-5.49-1.24-1.87-2.65-3.25-4.23-4.13-1.58-.87-3.19-1.28-4.86-1.2-1.67,.07-3.26,.6-4.76,1.61-1.52,1.01-2.62,2.27-3.34,3.78-.69,1.5-.94,3.16-.73,4.95,.2,1.79,.93,3.62,2.18,5.5,1.24,1.86,2.65,3.23,4.24,4.11,1.58,.9,3.19,1.29,4.86,1.23,1.67-.08,3.25-.62,4.76-1.64,1.51-1,2.61-2.25,3.33-3.77,.7-1.51,.94-3.17,.74-4.95Zm-3.48,3.77c-.45,1.05-1.19,1.89-2.19,2.56-1.01,.68-2.07,1.02-3.2,1.05-1.12,.02-2.24-.3-3.34-.97-1.11-.67-2.15-1.73-3.09-3.14-.95-1.43-1.52-2.77-1.72-4.07-.19-1.27-.07-2.43,.39-3.46,.47-1.02,1.18-1.89,2.19-2.56,1-.66,2.07-1.01,3.2-1.03,1.12-.02,2.24,.3,3.35,.97,1.1,.66,2.14,1.72,3.08,3.12,.95,1.43,1.52,2.78,1.73,4.07,.18,1.27,.07,2.44-.4,3.46Z"/>
    <path class="cls-1" d="M1123.69,617.5c-.6-2.17-1.5-3.92-2.71-5.26-1.22-1.33-2.62-2.24-4.24-2.68-1.6-.47-3.28-.45-5.02,.02-1.76,.49-3.21,1.33-4.35,2.53-1.15,1.22-1.9,2.7-2.27,4.49-.36,1.76-.25,3.73,.34,5.9,.59,2.16,1.49,3.9,2.72,5.24,1.22,1.34,2.62,2.24,4.23,2.69,1.6,.47,3.28,.45,5.03-.02,1.75-.49,3.19-1.33,4.35-2.53,1.15-1.22,1.9-2.71,2.26-4.49,.37-1.75,.26-3.73-.33-5.88Zm-2.68,5.21c-.23,1.27-.72,2.34-1.48,3.16-.76,.84-1.72,1.42-2.89,1.74-1.17,.33-2.28,.32-3.37-.02-1.07-.33-2.03-.99-2.87-1.98s-1.49-2.31-1.93-3.95c-.45-1.65-.57-3.1-.34-4.38s.7-2.33,1.45-3.17c.77-.83,1.73-1.41,2.9-1.73,1.17-.32,2.28-.32,3.36,.01,1.08,.34,2.03,1,2.87,1.98,.84,.99,1.49,2.32,1.94,3.95,.45,1.66,.56,3.12,.35,4.4Z"/>
    <path class="cls-1" d="M1145.7,612.05c-.73-1.59-1.79-2.84-3.24-3.74-1.44-.91-3.18-1.4-5.24-1.49l-7.02-.3-.91,20.98,6.79,.3c2.15,.09,3.98-.25,5.52-1.02,1.53-.78,2.73-1.94,3.6-3.49,.85-1.53,1.34-3.4,1.43-5.58,.09-2.18-.23-4.07-.94-5.67Zm-2.17,5.52c-.07,1.67-.4,3.07-.97,4.2-.58,1.12-1.41,1.95-2.5,2.52-1.08,.56-2.42,.81-4.02,.74l-3.45-.15,.67-15.45,3.65,.15c1.53,.07,2.79,.42,3.79,1.06,1.01,.65,1.75,1.54,2.23,2.71,.48,1.17,.67,2.58,.6,4.21Z"/>
    <path class="cls-1" d="M1176.06,619.96c-.19-1.06-.68-2.04-1.45-2.96-.78-.91-1.82-1.67-3.1-2.26-1.28-.6-2.53-.91-3.77-.93-1.22-.01-2.33,.25-3.31,.78-.97,.55-1.72,1.36-2.23,2.47-.61,1.32-.67,2.59-.16,3.82,.51,1.23,1.44,2.4,2.77,3.52l1.97,1.66c.6,.5,1.1,.99,1.54,1.48,.43,.49,.72,.99,.87,1.5,.15,.51,.09,1.05-.17,1.6-.3,.62-.73,1.08-1.31,1.37-.58,.28-1.24,.41-2,.37-.75-.03-1.54-.24-2.35-.62-.74-.35-1.36-.77-1.87-1.28-.51-.5-.87-1.08-1.05-1.72-.18-.64-.15-1.32,.12-2.03l-2.89-1.33c-.48,1.16-.61,2.31-.41,3.42,.2,1.1,.72,2.14,1.54,3.07,.83,.93,1.95,1.74,3.39,2.4,1.49,.7,2.87,1.06,4.15,1.06s2.39-.28,3.34-.85c.94-.58,1.66-1.41,2.16-2.5,.41-.85,.58-1.66,.52-2.43-.05-.77-.25-1.5-.6-2.16-.35-.67-.78-1.28-1.31-1.83-.52-.57-1.05-1.06-1.59-1.49l-1.64-1.34c-.33-.26-.66-.57-.99-.91-.34-.33-.62-.68-.87-1.07-.25-.39-.41-.8-.45-1.22-.07-.43,0-.87,.22-1.33,.25-.53,.62-.94,1.15-1.23,.5-.27,1.1-.4,1.79-.39,.68,.02,1.42,.22,2.19,.58,1.09,.51,1.89,1.18,2.37,2,.49,.83,.58,1.69,.27,2.61l2.77,1.3c.44-1.02,.57-2.08,.36-3.12Z"/>
    <path class="cls-1" d="M1193.6,633.43l1.75-2.09-10.09-8.47-13.52,16.1,10.19,8.55,1.76-2.1-7.76-6.51,4.13-4.93,7.13,6,1.75-2.08-7.13-6,4.12-4.9,7.66,6.43Z"/>
    <path class="cls-1" d="M1195.85,650.09l-.77,1.54-4.06,8.07,2.08,2.96,4.27-8.7,.5-1-2.02-2.87Zm11.44-2.32c-.16-1.2-.72-2.47-1.65-3.81l-4.29-6.12-17.2,12.08,1.83,2.6,6.5-4.58,2.48,3.53c.05,.06,.09,.11,.12,.16,.74,1.01,1.49,1.78,2.29,2.33,.19,.14,.37,.26,.58,.36,1.06,.57,2.15,.8,3.25,.67,1.1-.11,2.19-.56,3.24-1.29,1.06-.73,1.84-1.61,2.34-2.61,.5-1,.67-2.11,.51-3.32Zm-3.26,1.77c-.31,.58-.78,1.1-1.42,1.56-.65,.45-1.28,.72-1.92,.8-.62,.07-1.26-.08-1.86-.42-.61-.36-1.22-.98-1.81-1.81l-2.32-3.29,6.24-4.37,2.28,3.26c.6,.85,.97,1.64,1.08,2.34,.11,.7,.02,1.35-.27,1.94Z"/>
    <path class="cls-1" d="M1218.13,670.13l-18.08,.17-.08-.22,14.2-11.21-1.14-3.23-17.31,14.11,1.22,3.45,22.33,.15-1.14-3.23Z"/>
    <path class="cls-1" d="M1220.06,680.04l-20.83,2.81,.43,3.15,20.81-2.82-.41-3.14Z"/>
    <path class="cls-1" d="M1220.12,695.36c-.75-1.49-1.9-2.69-3.44-3.64-1.56-.94-3.44-1.5-5.68-1.68-2.23-.16-4.17,.09-5.85,.78-1.67,.69-2.99,1.72-3.95,3.07-.98,1.35-1.53,2.93-1.67,4.75-.09,1.15,0,2.23,.26,3.24,.27,.99,.68,1.9,1.25,2.7s1.26,1.49,2.09,2.04c.82,.55,1.74,.95,2.75,1.2l.27-3.18c-.67-.19-1.24-.47-1.73-.85-.49-.37-.9-.81-1.22-1.33-.31-.51-.53-1.07-.67-1.68-.14-.61-.18-1.24-.13-1.9,.08-1.2,.47-2.25,1.15-3.16,.67-.92,1.61-1.59,2.83-2.06,1.22-.45,2.67-.61,4.37-.49,1.7,.13,3.11,.51,4.24,1.15,1.14,.65,1.97,1.47,2.5,2.45,.52,1.01,.75,2.1,.66,3.32-.06,.66-.19,1.3-.42,1.87-.23,.58-.55,1.1-.94,1.56-.41,.45-.87,.83-1.42,1.12-.53,.3-1.16,.48-1.84,.55l-.26,3.19c1.15-.08,2.17-.35,3.09-.78,.91-.44,1.7-1.03,2.37-1.75,.67-.72,1.2-1.54,1.59-2.5,.4-.93,.64-1.95,.72-3.08,.14-1.79-.17-3.45-.92-4.93Z"/>
    <path class="cls-1" d="M1198.16,710.04l-4.63,12.46,2.56,.94,3.53-9.49,6.03,2.23-3.24,8.74,2.54,.95,3.24-8.74,6.01,2.23-3.5,9.38,2.58,.94,4.58-12.35-19.7-7.3Z"/>
    <path class="cls-1" d="M1206.65,736.63c-.35-1.07-1.02-1.94-2.01-2.64-1.19-.85-2.43-1.12-3.73-.85-1.31,.28-2.61,.98-3.96,2.09l-1.99,1.64c-.59,.5-1.18,.91-1.73,1.26-.57,.33-1.11,.52-1.64,.58-.53,.07-1.05-.09-1.54-.45-.57-.39-.93-.9-1.12-1.52-.18-.62-.18-1.3,0-2.03,.17-.75,.52-1.48,1.05-2.2,.47-.67,.99-1.2,1.59-1.62,.58-.41,1.22-.65,1.87-.72,.67-.06,1.32,.11,1.98,.5l1.84-2.6c-1.07-.68-2.18-1.01-3.31-1.01-1.11-.01-2.23,.32-3.29,.97-1.07,.64-2.07,1.61-2.98,2.89-.94,1.34-1.53,2.64-1.77,3.9-.24,1.26-.16,2.4,.24,3.43,.4,1.03,1.09,1.9,2.06,2.59,.77,.55,1.55,.85,2.31,.94,.77,.08,1.51,.01,2.24-.2,.72-.22,1.4-.55,2.04-.97,.62-.4,1.2-.84,1.73-1.28l1.62-1.36c.33-.27,.67-.56,1.07-.82,.39-.27,.78-.49,1.22-.67,.42-.17,.84-.26,1.27-.23,.43,.01,.85,.16,1.26,.45,.49,.34,.83,.78,1.01,1.34,.17,.56,.19,1.16,.05,1.84-.14,.66-.47,1.35-.97,2.06-.69,.98-1.49,1.64-2.39,1.98-.9,.34-1.77,.27-2.62-.2l-1.77,2.49c.94,.64,1.94,.94,3.02,.93,1.07-.01,2.14-.32,3.17-.91,1.03-.6,1.97-1.49,2.79-2.65,.82-1.15,1.34-2.32,1.58-3.53,.24-1.19,.17-2.33-.18-3.39Z"/>
  </g>
  <path class="cls-1" d="M809.39,770.61c-4.76,1.18-8.43,1.76-11.19,1.76-8.88,0-15.04-2.65-18.35-7.92-2.17-3.66-3.23-9.74-3.23-18.6,0-1.93-.05-4.88-.15-10.27v-10.28c0-6.54,1.9-9.86,5.65-9.86h10.86c1.83,0,4.76,.07,9.83,.22,4.66,.15,7.79,.23,9.58,.23,.32,0,.56-.02,.73-.05-.01-2.16-.06-5.23-.16-9.59-.09-4.5-.14-7.85-.14-10.21s.24-5.75,.75-10.37c.37-3.37,.6-6.21,.68-8.29-3.49,.01-8.55,.16-15.03,.43-6.78,.28-12,.43-15.52,.43-2.31,0-7.67-1.03-7.67-10.56,0-4.09,.31-9.96,.95-17.96,.56-7.01,.86-12.44,.91-16.19-.11-.01-.25-.03-.4-.05h-.14c-9.67-1.14-17.16-2.07-22.28-2.76-2.35-.22-6.23-.95-11.85-2.25-4.36-1.05-7.2-1.45-9.02-1.59-.4,1.36-1.05,4.82-1.05,13.19,.03,.92,.24,6.9,.6,17.81,.19,8.26-.02,14.15-.65,18.01-.32,2.1-1.93,5.65-8.97,5.83-3.43,.11-5.12,.48-5.87,.74,.02,1.98,.14,4.67,.34,8.03,.24,4.13,.36,7.32,.36,9.46,0,1.68-.12,4.17-.36,7.37-.24,2.99-.35,5.34-.35,6.83,0,.06,0,.1,.01,.14,.19,.1,.77,.3,2,.3,.22,0,.87-.06,1.57-.12h.16s2.04-.01,2.04-.01c6.8,0,10.87,3.68,10.87,9.84,0,6.59-.25,16.3-.73,28.88-.49,12.69-.73,22.33-.73,28.63,0,19.19,12.55,28.52,38.37,28.52,14.51,0,27.87-3.32,39.76-9.87,2.39-1.31,3.28-2.03,3.56-2.27,.08-.32,.27-1.22,.27-3.28,0-2.9,.37-7.4,1.11-13.38,.67-5.5,1.03-9.69,1.06-12.44-1.23,.07-3.61,.41-8.21,1.54Z"/>
</svg>